<svg id="visual" viewBox="0 0 900 600" width="900" height="600" xmlns="http://www.w3.org/2000/svg" xmlns:xlink="http://www.w3.org/1999/xlink" version="1.1"><g stroke-width="1" stroke-linejoin="bevel"><path d="M423 269L500 271L424 169Z" fill="#19435d" stroke="#19435d"></path><path d="M500 271L516 175L424 169Z" fill="#246688" stroke="#246688"></path><path d="M500 271L592 206L516 175Z" fill="#1d4e6b" stroke="#1d4e6b"></path><path d="M436 0L360 114L424 169Z" fill="#19435d" stroke="#19435d"></path><path d="M424 169L283 232L423 269Z" fill="#297ea6" stroke="#297ea6"></path><path d="M576 74L523 61L516 175Z" fill="#112e42" stroke="#112e42"></path><path d="M516 175L523 61L424 169Z" fill="#081a28" stroke="#081a28"></path><path d="M423 269L493 392L500 271Z" fill="#246688" stroke="#246688"></path><path d="M500 271L618 336L592 206Z" fill="#00101c" stroke="#00101c"></path><path d="M360 114L283 232L424 169Z" fill="#0c2435" stroke="#0c2435"></path><path d="M423 269L362 419L493 392Z" fill="#081a28" stroke="#081a28"></path><path d="M592 206L576 74L516 175Z" fill="#277297" stroke="#277297"></path><path d="M493 392L618 336L500 271Z" fill="#1d4e6b" stroke="#1d4e6b"></path><path d="M592 206L720 103L576 74Z" fill="#205a7a" stroke="#205a7a"></path><path d="M283 232L280 308L423 269Z" fill="#0c2435" stroke="#0c2435"></path><path d="M333 0L311 69L360 114Z" fill="#205a7a" stroke="#205a7a"></path><path d="M360 114L311 69L283 232Z" fill="#205a7a" stroke="#205a7a"></path><path d="M501 0L436 0L523 61Z" fill="#1d4e6b" stroke="#1d4e6b"></path><path d="M523 61L436 0L424 169Z" fill="#297ea6" stroke="#297ea6"></path><path d="M583 0L501 0L523 61Z" fill="#205a7a" stroke="#205a7a"></path><path d="M295 376L362 419L423 269Z" fill="#277297" stroke="#277297"></path><path d="M280 308L295 376L423 269Z" fill="#19435d" stroke="#19435d"></path><path d="M618 336L695 234L592 206Z" fill="#19435d" stroke="#19435d"></path><path d="M493 392L606 408L618 336Z" fill="#112e42" stroke="#112e42"></path><path d="M618 336L732 272L695 234Z" fill="#19435d" stroke="#19435d"></path><path d="M529 498L606 408L493 392Z" fill="#246688" stroke="#246688"></path><path d="M673 0L583 0L576 74Z" fill="#277297" stroke="#277297"></path><path d="M576 74L583 0L523 61Z" fill="#246688" stroke="#246688"></path><path d="M436 0L333 0L360 114Z" fill="#205a7a" stroke="#205a7a"></path><path d="M286 532L398 467L362 419Z" fill="#112e42" stroke="#112e42"></path><path d="M362 419L398 467L493 392Z" fill="#246688" stroke="#246688"></path><path d="M734 427L732 272L618 336Z" fill="#081a28" stroke="#081a28"></path><path d="M695 234L720 103L592 206Z" fill="#081a28" stroke="#081a28"></path><path d="M163 0L207 107L311 69Z" fill="#277297" stroke="#277297"></path><path d="M311 69L207 107L283 232Z" fill="#0c2435" stroke="#0c2435"></path><path d="M283 232L168 298L280 308Z" fill="#277297" stroke="#277297"></path><path d="M280 308L168 298L295 376Z" fill="#19435d" stroke="#19435d"></path><path d="M806 188L720 103L695 234Z" fill="#0c2435" stroke="#0c2435"></path><path d="M398 467L529 498L493 392Z" fill="#15384f" stroke="#15384f"></path><path d="M606 408L734 427L618 336Z" fill="#277297" stroke="#277297"></path><path d="M207 107L165 191L283 232Z" fill="#112e42" stroke="#112e42"></path><path d="M720 103L673 0L576 74Z" fill="#205a7a" stroke="#205a7a"></path><path d="M165 191L168 298L283 232Z" fill="#297ea6" stroke="#297ea6"></path><path d="M295 376L286 532L362 419Z" fill="#19435d" stroke="#19435d"></path><path d="M529 498L620 494L606 408Z" fill="#00101c" stroke="#00101c"></path><path d="M620 494L734 427L606 408Z" fill="#15384f" stroke="#15384f"></path><path d="M734 427L792 311L732 272Z" fill="#15384f" stroke="#15384f"></path><path d="M732 272L806 188L695 234Z" fill="#277297" stroke="#277297"></path><path d="M792 311L806 188L732 272Z" fill="#205a7a" stroke="#205a7a"></path><path d="M720 103L798 0L673 0Z" fill="#081a28" stroke="#081a28"></path><path d="M168 298L181 439L295 376Z" fill="#081a28" stroke="#081a28"></path><path d="M398 467L467 600L529 498Z" fill="#205a7a" stroke="#205a7a"></path><path d="M238 517L286 532L295 376Z" fill="#0c2435" stroke="#0c2435"></path><path d="M529 498L592 600L620 494Z" fill="#112e42" stroke="#112e42"></path><path d="M620 494L724 483L734 427Z" fill="#0c2435" stroke="#0c2435"></path><path d="M734 427L804 372L792 311Z" fill="#081a28" stroke="#081a28"></path><path d="M703 600L724 483L620 494Z" fill="#19435d" stroke="#19435d"></path><path d="M80 92L80 214L165 191Z" fill="#19435d" stroke="#19435d"></path><path d="M333 0L163 0L311 69Z" fill="#1d4e6b" stroke="#1d4e6b"></path><path d="M181 439L238 517L295 376Z" fill="#297ea6" stroke="#297ea6"></path><path d="M812 526L804 372L734 427Z" fill="#246688" stroke="#246688"></path><path d="M900 274L900 221L806 188Z" fill="#297ea6" stroke="#297ea6"></path><path d="M168 298L122 373L181 439Z" fill="#081a28" stroke="#081a28"></path><path d="M176 600L260 600L238 517Z" fill="#1d4e6b" stroke="#1d4e6b"></path><path d="M68 280L122 373L168 298Z" fill="#246688" stroke="#246688"></path><path d="M80 214L168 298L165 191Z" fill="#277297" stroke="#277297"></path><path d="M900 221L827 115L806 188Z" fill="#15384f" stroke="#15384f"></path><path d="M806 188L827 115L720 103Z" fill="#277297" stroke="#277297"></path><path d="M387 600L398 467L286 532Z" fill="#081a28" stroke="#081a28"></path><path d="M387 600L467 600L398 467Z" fill="#205a7a" stroke="#205a7a"></path><path d="M80 92L165 191L207 107Z" fill="#112e42" stroke="#112e42"></path><path d="M260 600L387 600L286 532Z" fill="#15384f" stroke="#15384f"></path><path d="M80 214L68 280L168 298Z" fill="#112e42" stroke="#112e42"></path><path d="M827 115L798 0L720 103Z" fill="#1d4e6b" stroke="#1d4e6b"></path><path d="M467 600L592 600L529 498Z" fill="#205a7a" stroke="#205a7a"></path><path d="M163 0L80 92L207 107Z" fill="#205a7a" stroke="#205a7a"></path><path d="M80 214L0 273L68 280Z" fill="#19435d" stroke="#19435d"></path><path d="M163 0L103 0L80 92Z" fill="#297ea6" stroke="#297ea6"></path><path d="M121 487L238 517L181 439Z" fill="#205a7a" stroke="#205a7a"></path><path d="M238 517L260 600L286 532Z" fill="#1d4e6b" stroke="#1d4e6b"></path><path d="M0 413L121 487L122 373Z" fill="#15384f" stroke="#15384f"></path><path d="M122 373L121 487L181 439Z" fill="#1d4e6b" stroke="#1d4e6b"></path><path d="M900 274L806 188L792 311Z" fill="#00101c" stroke="#00101c"></path><path d="M827 115L900 84L798 0Z" fill="#19435d" stroke="#19435d"></path><path d="M900 385L900 274L792 311Z" fill="#19435d" stroke="#19435d"></path><path d="M900 385L792 311L804 372Z" fill="#1d4e6b" stroke="#1d4e6b"></path><path d="M592 600L703 600L620 494Z" fill="#246688" stroke="#246688"></path><path d="M724 483L812 526L734 427Z" fill="#277297" stroke="#277297"></path><path d="M900 221L900 84L827 115Z" fill="#277297" stroke="#277297"></path><path d="M703 600L812 526L724 483Z" fill="#246688" stroke="#246688"></path><path d="M0 161L0 273L80 214Z" fill="#112e42" stroke="#112e42"></path><path d="M68 280L0 413L122 373Z" fill="#00101c" stroke="#00101c"></path><path d="M0 161L80 214L80 92Z" fill="#112e42" stroke="#112e42"></path><path d="M0 129L0 161L80 92Z" fill="#081a28" stroke="#081a28"></path><path d="M900 502L900 385L804 372Z" fill="#081a28" stroke="#081a28"></path><path d="M0 0L0 129L80 92Z" fill="#15384f" stroke="#15384f"></path><path d="M121 487L176 600L238 517Z" fill="#19435d" stroke="#19435d"></path><path d="M117 600L176 600L121 487Z" fill="#0c2435" stroke="#0c2435"></path><path d="M900 84L900 0L798 0Z" fill="#00101c" stroke="#00101c"></path><path d="M0 273L0 413L68 280Z" fill="#081a28" stroke="#081a28"></path><path d="M103 0L0 0L80 92Z" fill="#112e42" stroke="#112e42"></path><path d="M0 530L117 600L121 487Z" fill="#277297" stroke="#277297"></path><path d="M900 600L900 502L812 526Z" fill="#246688" stroke="#246688"></path><path d="M812 526L900 502L804 372Z" fill="#205a7a" stroke="#205a7a"></path><path d="M703 600L822 600L812 526Z" fill="#112e42" stroke="#112e42"></path><path d="M0 413L0 530L121 487Z" fill="#205a7a" stroke="#205a7a"></path><path d="M822 600L900 600L812 526Z" fill="#15384f" stroke="#15384f"></path><path d="M0 530L0 600L117 600Z" fill="#00101c" stroke="#00101c"></path></g></svg>